<svg xmlns="http://www.w3.org/2000/svg" viewBox="0 0 317.78 370.22"><path d="M240.83,320.92s-23.4-25.37-22.72-77.2c0,0,85.2-160.59,71.34-222,0,0-11.31-28.74-38,7.13,0,0-23.54,32.48-39.6,105.36a284.63,284.63,0,0,0-6.71,120.89q-2,5.52-4.09,11.09c-8.12,21.49-17,41.74-26.21,60.78-1.81,3.68-7.62,14.33-17.47,16.18-13.43,2.52-31.8-11.83-37-37.79,0,0-13.08-44.15-9.45-58.22,2.94-11.41,9.39-30,28.9-78.53,0,0,42.48-107.39,37.32-143,0,0-3.92-41-34.34-15,0,0-52.55,37.15-49.76,256.44-8.71,28.61-22.59,45.62-31.91,54.9-9.79,9.75-29.34,25.69-35.56,21.13-2.53-1.84-2.23-6.6-1.56-10.4,0,0,17.4-77.16,30.7-86.94,0,0,18.06-12,29.56,18.17,0,0,4.88,6.8,1-4.07,0,0-13.93-35.82-36.34-23.37,0,0-20.43,9.08-41.47,77.88-8.54,24.12-5.44,45,5.41,51.48s27.3-3.11,34.4-7.29c34.62-20.4,45.27-61.64,48.73-79.3a130.24,130.24,0,0,0,5.26,29.56c6.82,22.64,23.22,54.46,43.7,56.94a23.25,23.25,0,0,0,4.79.07C164.21,364.4,173.1,348.9,176,343.3c0,0,24.56-45.54,32.7-76.77a162.33,162.33,0,0,0,4.17,25.73c1.25,5.1,4.54,18.47,10.47,29.71,10.31,19.58,35.9,46.49,60.41,40.84,4.19-1,12.59-3.85,21.11-14.78a70.92,70.92,0,0,0,10-19.91S277.5,368.9,240.83,320.92Zm-86.66-304a2.33,2.33,0,0,1,3.25-.55,2.37,2.37,0,0,1,.89,1.26c11,42.63-53.4,220.48-53.4,220.48,9.2-150,40-208,49.26-221.19Zm115,11.37A2.69,2.69,0,0,1,273,28a3,3,0,0,1,.38.42c15.9,24.79-60.55,209.65-60.55,209.65,15.78-157.41,48.05-201,56.41-209.82Z"/></svg>