<svg xmlns="http://www.w3.org/2000/svg" viewBox="0 0 421.21 167"><defs><style>.a{font-size:35px;}.a,.b{font-family:OCRAExtended, OCR A Extended;}.b{font-size:21.99px;}</style></defs><text class="a" transform="translate(132.29 143.74)">dineen lauren</text><text class="b" transform="translate(205.7 161.69)">WEB DEVELOPMENT</text><path d="M124.12,143.81S113.74,132.55,114,109.57c0,0,37.79-71.23,31.65-98.48,0,0-5-12.75-16.87,3.16,0,0-10.44,14.4-17.56,46.72a125.72,125.72,0,0,0-3.58,17.9,127.4,127.4,0,0,0,.6,35.73q-.89,2.45-1.81,4.91c-3.6,9.53-7.52,18.51-11.63,27-.8,1.63-3.38,6.36-7.74,7.17-6,1.12-14.11-5.24-16.42-16.75,0,0-5.8-19.59-4.19-25.83,1.3-5.06,4.16-13.3,12.82-34.83,0,0,18.84-47.62,16.55-63.43,0,0-1.74-18.21-15.23-6.64,0,0-23.31,16.48-22.07,113.74-3.86,12.69-10,20.23-14.15,24.35-4.35,4.32-13,11.39-15.78,9.37-1.12-.82-1-2.93-.69-4.61,0,0,7.72-34.23,13.62-38.56,0,0,8-5.3,13.11,8.06,0,0,2.16,3,.46-1.81,0,0-6.18-15.89-16.12-10.37,0,0-9.06,4-18.4,34.55-3.78,10.7-2.41,20,2.41,22.83s12.1-1.38,15.25-3.23c15.36-9,20.08-27.33,21.59-35.16a57.77,57.77,0,0,0,2.34,13.11c3,10,10.29,24.15,19.38,25.25a9.87,9.87,0,0,0,2.12,0c6.42-.62,10.36-7.49,11.64-10,0,0,10.89-20.2,14.51-34a70.68,70.68,0,0,0,1.84,11.41,60.89,60.89,0,0,0,4.64,13.18c4.58,8.68,15.93,20.62,26.8,18.12,1.86-.43,5.58-1.71,9.36-6.56a31.56,31.56,0,0,0,2.35-3.8,31.91,31.91,0,0,0,2.09-5S140.38,165.09,124.12,143.81ZM85.69,9a1,1,0,0,1,1.83.32c4.89,18.91-23.68,96.19-23.68,96.19C67.92,38.93,81.59,14.81,85.69,9Zm51,5a1.19,1.19,0,0,1,1.85.08c7.05,11-26.85,93-26.85,93C118.69,37.26,133,17.94,136.71,14Z"/></svg>